<?xml version="1.0" standalone="no"?>
<!DOCTYPE svg PUBLIC "-//W3C//DTD SVG 20010904//EN"
 "http://www.w3.org/TR/2001/REC-SVG-20010904/DTD/svg10.dtd">
<svg version="1.0" xmlns="http://www.w3.org/2000/svg"
 width="600.000000pt" height="600.000000pt" viewBox="0 0 600.000000 600.000000"
 preserveAspectRatio="xMidYMid meet">
<metadata>
Created by potrace 1.14, written by Peter Selinger 2001-2017
</metadata>
<g transform="translate(0.000000,600.000000) scale(0.100000,-0.100000)"
fill="#000000" stroke="none">
<path d="M928 4728 c-7 -4 -22 -8 -34 -8 -11 0 -29 -6 -40 -14 -18 -14 -18
-15 11 -26 17 -7 62 -20 101 -30 71 -18 186 -63 208 -81 6 -5 29 -25 51 -44
22 -19 43 -35 47 -35 3 0 12 -17 19 -37 6 -21 16 -43 21 -50 15 -19 -13 -173
-32 -173 -6 0 -10 -7 -10 -16 0 -9 -26 -41 -58 -72 -65 -63 -79 -73 -137 -103
-22 -11 -53 -28 -70 -39 -16 -10 -42 -19 -57 -19 -15 -1 -29 -5 -32 -10 -5 -8
-60 -20 -166 -37 -28 -5 -81 -7 -123 -5 l-29 1 23 38 c29 47 117 169 146 202
13 14 23 28 23 32 0 4 12 21 28 37 15 16 32 36 37 43 33 43 165 194 194 222
15 14 18 24 11 41 -5 13 -6 26 -3 29 3 3 0 12 -7 21 -10 12 -16 12 -36 2 -28
-15 -194 -176 -194 -189 0 -14 13 -9 39 15 l25 22 -18 -30 c-11 -16 -27 -37
-36 -47 -10 -9 -28 -34 -41 -55 -12 -21 -26 -40 -29 -43 -3 -3 -22 -29 -43
-57 -20 -29 -44 -61 -53 -70 -8 -10 -45 -60 -81 -111 -63 -90 -66 -93 -98 -89
-50 7 -63 18 -34 30 l24 9 -25 11 c-14 5 -27 11 -30 12 -3 0 -22 7 -44 14 -32
11 -40 11 -47 0 -24 -38 13 -100 76 -130 50 -23 52 -30 24 -74 -10 -16 -22
-37 -26 -45 -4 -8 -14 -23 -23 -33 -9 -9 -23 -30 -31 -45 -7 -15 -23 -40 -35
-57 -27 -36 -95 -238 -96 -281 0 -39 30 -96 76 -140 28 -27 43 -34 76 -34 22
0 40 3 40 8 0 16 -18 34 -28 28 -6 -3 -23 6 -38 21 -23 23 -27 36 -27 78 1 27
4 64 8 80 3 17 7 38 8 48 1 9 5 17 9 17 4 0 8 7 8 16 0 21 71 174 81 174 4 0
10 11 13 24 3 13 22 48 41 77 19 30 37 61 40 69 4 13 26 16 122 16 65 0 132 3
148 7 17 3 39 8 50 9 11 2 23 7 26 11 3 4 17 9 30 11 36 3 109 28 109 36 0 5
10 10 23 14 12 3 35 17 51 31 16 14 32 25 35 25 11 0 71 59 71 69 0 6 3 10 8
9 16 -6 104 103 134 168 33 70 48 166 33 201 -5 10 -9 20 -10 23 -19 71 -114
198 -137 184 -5 -3 -12 3 -14 13 -6 23 -78 69 -100 65 -9 -2 -22 2 -30 9 -17
14 -127 20 -146 7z"/>
<path d="M1460 4621 c0 -6 -9 -11 -21 -11 -24 0 -59 -17 -59 -29 0 -11 50 -32
61 -26 5 4 9 1 9 -4 0 -6 7 -11 16 -11 27 0 86 -32 144 -78 54 -43 124 -112
114 -112 -3 0 6 -15 19 -32 28 -37 66 -167 62 -213 -5 -74 -31 -141 -78 -205
-41 -56 -129 -138 -154 -145 -16 -4 -48 -21 -73 -39 -43 -31 -110 -61 -110
-49 0 3 -7 0 -15 -7 -8 -6 -19 -9 -25 -5 -5 3 -10 2 -10 -3 0 -11 -92 -13
-109 -2 -13 7 4 59 58 175 15 33 43 94 61 135 19 41 42 87 52 102 10 14 18 35
18 46 0 11 7 25 15 32 8 6 17 22 21 33 3 12 21 45 39 72 18 28 43 69 54 92 22
41 22 42 3 79 l-19 37 -40 -54 c-22 -30 -52 -75 -67 -101 -15 -27 -31 -48 -36
-48 -4 0 -10 -10 -13 -22 -5 -21 -5 -21 7 -5 7 9 19 17 27 17 11 0 11 -2 1 -9
-7 -4 -12 -12 -11 -17 2 -16 -13 -54 -22 -54 -5 0 -9 -5 -9 -12 0 -6 -15 -44
-34 -82 -18 -39 -50 -109 -71 -156 -67 -154 -65 -152 -107 -145 -20 4 -45 2
-56 -4 -38 -20 -36 -127 4 -157 13 -10 11 -22 -16 -90 -31 -79 -34 -87 -64
-156 -9 -20 -16 -41 -16 -46 0 -6 -5 -23 -11 -39 -6 -15 -9 -28 -7 -29 2 0 -4
-9 -12 -19 -17 -20 -37 -89 -46 -152 -4 -36 -1 -46 25 -75 32 -35 46 -32 55
12 6 28 54 161 61 168 3 3 0 11 -5 17 -10 12 23 129 81 292 l22 63 39 -32 c22
-17 42 -37 45 -45 3 -7 9 -13 14 -13 6 0 15 -5 22 -10 39 -33 67 -60 67 -64 0
-5 56 -68 137 -153 29 -30 53 -58 53 -61 0 -3 8 -14 17 -24 14 -16 15 -25 4
-71 -16 -67 -25 -275 -13 -302 6 -11 15 -39 22 -62 7 -23 20 -50 30 -60 9 -10
19 -26 23 -36 4 -11 16 -21 27 -24 11 -3 20 -10 20 -15 0 -13 51 -55 80 -67
34 -13 64 -22 68 -22 1 1 19 -6 40 -15 40 -18 252 -29 252 -13 0 5 18 12 40
15 22 4 40 11 40 16 0 6 11 7 24 4 13 -3 26 -2 28 3 2 6 23 12 47 15 24 3 54
12 67 21 13 8 24 13 24 10 0 -11 81 36 87 50 3 8 9 13 13 10 5 -3 15 1 22 9 8
7 23 16 33 20 11 3 45 28 75 56 30 27 58 50 63 50 4 0 7 5 7 11 0 12 50 63 61
64 10 0 99 121 99 134 0 6 4 11 8 11 8 0 52 92 52 109 0 5 14 40 31 77 37 85
73 193 65 201 -3 3 -1 14 5 25 10 19 13 156 5 285 -4 60 -18 119 -39 158 -6
11 -12 26 -13 34 -4 20 -47 105 -56 109 -5 2 -8 7 -8 12 0 23 -95 153 -153
208 -15 15 -40 39 -54 55 -15 15 -35 27 -45 27 -10 0 -18 4 -18 8 0 14 -58 42
-74 36 -9 -3 -16 -2 -16 4 0 10 -28 7 -60 -6 -17 -6 -27 -9 -50 -11 -8 -1 -28
-13 -43 -26 -31 -28 -30 -65 2 -65 9 0 22 -5 28 -11 5 -5 35 -13 64 -15 30 -3
55 -9 57 -14 2 -5 10 -6 18 -3 8 3 14 0 14 -7 0 -7 7 -10 16 -6 8 3 12 2 9 -4
-3 -6 3 -10 14 -10 12 0 21 -4 21 -9 0 -5 22 -23 50 -41 70 -45 210 -187 210
-213 0 -5 10 -26 22 -46 51 -81 74 -243 55 -377 -8 -58 -64 -214 -77 -214 -4
0 -18 -19 -29 -42 -34 -66 -47 -87 -68 -111 -11 -12 -33 -41 -48 -65 -15 -23
-30 -41 -32 -38 -2 2 -28 -19 -57 -48 -71 -68 -133 -120 -148 -124 -21 -6 -68
-43 -68 -54 0 -6 -3 -9 -6 -5 -3 3 -26 -5 -51 -19 -25 -13 -49 -21 -54 -18 -5
3 -9 0 -9 -6 0 -6 -4 -9 -9 -5 -5 3 -12 1 -16 -5 -3 -5 -19 -10 -34 -10 -15 0
-32 -5 -37 -10 -9 -9 -131 -30 -169 -30 -46 1 -150 14 -195 26 -30 8 -65 14
-77 14 -13 0 -26 7 -29 15 -6 14 -41 31 -56 27 -11 -3 -92 110 -95 133 -11 82
-8 147 9 210 11 39 21 77 23 86 2 8 22 55 44 103 23 49 41 92 41 96 0 5 6 13
13 17 7 4 28 34 47 66 19 32 43 67 52 77 10 10 27 36 38 57 11 21 32 47 48 57
16 10 39 34 52 53 95 139 369 348 467 357 53 5 101 -11 134 -45 16 -17 34 -27
40 -23 6 3 13 -3 16 -14 3 -11 11 -23 19 -26 19 -7 18 28 -3 86 -17 47 -38 65
-83 71 -14 1 -31 6 -39 11 -9 6 -12 5 -7 -2 4 -7 -2 -7 -22 0 -24 9 -41 6
-103 -16 -100 -37 -169 -69 -169 -78 0 -5 -6 -8 -14 -8 -8 0 -33 -17 -57 -37
-65 -56 -269 -265 -269 -275 0 -5 -11 -19 -24 -31 -13 -12 -32 -36 -42 -53
-11 -17 -36 -56 -56 -87 -21 -31 -38 -62 -38 -70 0 -8 -9 -26 -20 -40 -11 -14
-20 -28 -20 -30 0 -3 -18 -44 -40 -91 -22 -47 -40 -90 -40 -95 0 -17 -14 -13
-25 8 -47 89 -66 119 -84 135 -12 11 -21 25 -21 33 0 7 -4 13 -9 13 -5 0 -15
15 -22 33 -13 31 -35 58 -111 138 -21 21 -38 41 -38 43 0 2 12 6 28 9 15 3 41
11 57 18 17 7 38 13 48 14 10 1 32 9 50 17 132 61 157 78 240 159 48 47 87 89
87 92 0 4 8 15 19 26 10 10 29 45 41 77 18 49 21 72 17 139 -3 44 -9 89 -12
100 -18 51 -97 205 -106 205 -5 0 -9 6 -9 13 0 8 -9 22 -20 33 -12 10 -28 27
-38 37 -9 9 -22 17 -29 17 -7 0 -13 6 -13 13 0 7 -15 21 -32 32 -18 10 -35 22
-38 25 -9 13 -120 22 -120 11z"/>
<path d="M4990 4557 c0 -5 -7 -7 -15 -3 -8 3 -28 -6 -44 -19 -16 -14 -33 -25
-39 -25 -5 0 -19 -15 -30 -34 -34 -58 0 -66 138 -33 30 7 67 12 83 12 15 -1
27 3 27 8 0 4 5 5 12 1 6 -4 37 -9 67 -10 54 -3 131 -11 178 -20 13 -3 33 -6
45 -8 36 -7 100 -36 135 -62 17 -13 35 -24 40 -24 14 -1 61 -74 83 -129 17
-45 19 -67 15 -169 -3 -64 -9 -131 -14 -149 -5 -17 -7 -33 -5 -36 8 -7 -64
-232 -96 -302 -16 -36 -30 -70 -30 -75 0 -6 -11 -28 -25 -50 -14 -22 -25 -44
-25 -50 0 -10 -15 -31 -57 -78 -13 -14 -23 -31 -23 -39 0 -7 -7 -16 -15 -19
-8 -4 -15 -10 -15 -15 0 -6 -17 -27 -37 -48 -21 -21 -42 -44 -48 -50 -28 -31
-96 -85 -146 -115 -31 -19 -65 -42 -77 -51 -11 -10 -35 -19 -53 -20 -18 -2
-35 -7 -36 -12 -2 -6 -23 -7 -51 -2 -26 4 -53 8 -60 8 -6 1 -32 28 -56 60 -45
62 -81 173 -94 291 -8 78 -7 243 2 325 5 39 8 80 7 93 0 13 6 40 15 60 8 20
17 55 20 77 3 22 8 51 11 65 4 14 8 32 9 40 1 8 13 40 27 70 13 30 28 66 32
80 8 28 72 140 89 155 6 6 16 19 22 30 24 46 127 77 202 61 12 -3 22 0 22 6 0
7 5 6 15 -2 8 -6 22 -10 32 -8 15 3 13 9 -16 35 -19 18 -37 31 -40 31 -3 -1
-13 2 -23 6 -9 4 -48 -2 -88 -14 -53 -16 -81 -31 -108 -58 -49 -50 -84 -79
-81 -67 6 19 -33 84 -72 119 -21 20 -39 32 -39 27 0 -5 4 -12 9 -16 14 -8 71
-132 71 -153 0 -25 -38 -68 -56 -64 -8 2 -14 -2 -14 -7 0 -6 -10 -11 -22 -11
-13 0 -48 -2 -78 -3 -30 -2 -86 3 -125 11 -38 7 -87 15 -109 16 -37 4 -54 17
-57 44 -2 15 -6 31 -9 35 -3 3 -9 38 -15 85 -8 69 -30 112 -57 112 -33 0 -48
-13 -50 -41 -2 -25 9 -127 19 -166 6 -28 -5 -29 -62 -3 -25 11 -48 20 -52 19
-15 -2 -53 13 -53 22 0 5 -9 9 -19 9 -11 0 -23 5 -26 10 -4 6 -10 8 -15 5 -5
-3 -11 -1 -15 5 -3 5 -13 10 -22 10 -8 0 -28 9 -44 21 -16 11 -33 17 -39 14
-5 -3 -10 -2 -10 4 0 8 -117 71 -133 71 -4 0 -20 13 -35 30 -15 16 -39 32 -55
34 -34 6 -86 -11 -109 -35 -10 -9 -26 -20 -38 -24 -11 -3 -20 -9 -20 -13 0 -4
-25 -34 -55 -67 -30 -33 -55 -63 -55 -66 0 -4 -18 -34 -40 -67 -22 -33 -40
-66 -40 -74 0 -8 -9 -33 -20 -56 -54 -111 -61 -298 -15 -422 18 -49 30 -86 51
-150 9 -30 20 -59 24 -65 4 -5 13 -27 19 -47 7 -21 17 -38 22 -38 5 0 9 -7 9
-15 0 -8 20 -54 44 -102 24 -49 47 -98 51 -110 3 -13 10 -23 14 -23 4 0 18
-26 31 -57 13 -32 34 -75 47 -95 12 -20 24 -42 25 -48 3 -12 -161 -65 -170
-55 -3 2 -11 -3 -18 -13 -10 -12 -13 -13 -14 -3 0 9 -8 12 -25 9 -14 -3 -27
-2 -30 2 -2 4 -25 4 -49 0 -25 -4 -51 -3 -58 1 -7 5 -23 9 -35 9 -14 0 -29 13
-43 35 -28 45 -43 52 -107 50 -65 -2 -81 -14 -75 -57 10 -68 72 -116 110 -86
12 10 14 10 8 1 -5 -9 1 -13 23 -13 26 0 32 -6 55 -56 25 -55 98 -133 124
-134 7 0 15 -6 18 -14 6 -15 107 -68 169 -88 64 -21 193 -14 219 12 5 5 17 10
26 10 24 0 65 93 64 144 -1 38 -47 164 -63 176 -4 3 -10 13 -14 22 -5 14 2 21
27 32 19 8 38 20 42 28 5 7 26 26 48 42 36 27 70 82 60 98 -3 4 -19 -8 -35
-27 -17 -19 -53 -47 -80 -61 -27 -15 -49 -30 -49 -34 0 -4 -9 -10 -21 -13 -26
-7 -72 42 -105 113 -4 8 -19 33 -34 55 -66 98 -99 155 -134 230 -21 44 -46 88
-54 98 -9 10 -17 28 -18 40 -2 12 -11 47 -22 77 -38 107 -43 131 -46 207 -4
96 23 210 66 283 4 8 16 31 26 50 10 19 28 50 39 69 12 19 20 38 17 43 -3 4 2
8 10 8 9 0 16 3 16 8 0 4 11 20 25 36 13 16 22 33 19 37 -3 5 1 9 8 9 7 1 27
19 43 40 17 21 38 39 48 40 9 0 17 4 17 8 0 7 29 8 68 4 8 -1 12 -20 12 -55 0
-48 3 -56 34 -84 34 -30 34 -30 30 -104 -6 -96 -10 -124 -24 -181 -7 -27 -10
-57 -7 -68 3 -11 2 -20 -2 -20 -4 0 -18 -43 -31 -95 -13 -52 -27 -95 -30 -95
-6 0 -34 -63 -33 -75 3 -47 16 -85 28 -85 8 0 15 -7 15 -15 0 -8 8 -15 18 -15
20 0 40 33 53 90 5 19 20 78 34 130 38 144 48 276 34 412 -4 32 -4 56 0 55 3
-2 20 -9 36 -16 17 -7 38 -17 47 -22 22 -11 32 5 13 21 -22 19 -18 28 10 22
14 -2 25 -8 25 -12 0 -7 43 -21 80 -25 8 -1 18 -3 23 -5 4 -1 12 -4 17 -5 6
-1 11 -3 13 -5 2 -2 3 -2 90 -23 71 -18 77 -24 80 -70 3 -50 17 -59 18 -11 l1
39 14 -50 c8 -27 16 -63 19 -80 11 -81 22 -145 37 -205 6 -25 11 -52 13 -60 1
-8 5 -35 10 -60 5 -25 8 -48 7 -52 -1 -3 5 -44 13 -90 8 -45 17 -103 20 -128
2 -25 7 -63 11 -85 22 -153 33 -438 20 -534 -8 -68 -62 -164 -100 -181 -34
-15 -83 -15 -102 0 -8 7 -15 5 -24 -5 -7 -9 -11 -17 -9 -19 85 -72 137 -82
186 -36 18 17 36 30 41 30 15 0 45 81 44 120 0 19 2 28 6 20 12 -32 28 90 31
235 1 83 3 161 3 175 1 14 -1 50 -5 80 -4 30 -9 84 -12 120 -3 36 -7 76 -8 90
-8 56 -19 170 -17 176 1 4 -3 10 -8 13 -6 3 -13 38 -15 76 -3 39 -7 77 -10 85
-3 8 -8 35 -11 60 -8 62 -14 99 -36 210 -11 52 -18 95 -17 97 2 1 32 -2 68 -8
97 -16 139 -18 165 -9 13 5 26 5 29 1 3 -5 22 -5 42 0 52 12 55 11 44 -8 -5
-10 -11 -33 -14 -51 -3 -18 -10 -39 -16 -46 -6 -7 -8 -15 -5 -19 3 -3 1 -14
-4 -24 -5 -10 -13 -34 -16 -53 -3 -19 -10 -57 -16 -85 -23 -114 -30 -337 -14
-454 4 -31 6 -60 5 -65 -5 -20 33 -171 58 -231 54 -128 93 -179 171 -224 21
-12 61 -22 85 -21 90 2 129 10 151 31 13 12 24 19 24 16 0 -15 104 50 136 86
19 20 36 37 39 37 10 0 72 72 86 98 8 15 20 33 27 40 6 7 12 19 12 27 0 7 7
15 15 19 8 3 15 12 15 21 0 8 5 15 10 15 6 0 10 4 10 9 0 6 10 21 23 35 21 23
71 117 100 186 5 14 16 39 23 55 39 93 54 137 54 164 0 16 4 32 9 35 5 4 8 14
7 24 -2 9 0 19 4 22 37 24 29 378 -10 484 -19 49 -70 123 -124 177 -41 41
-229 126 -321 144 -11 2 -49 11 -85 19 -80 18 -210 26 -210 13z m-1310 -1707
c17 -34 31 -122 25 -158 -6 -39 -56 -99 -73 -88 -5 3 -18 -3 -30 -14 -12 -12
-23 -16 -27 -10 -3 6 -24 10 -45 10 -21 0 -40 5 -42 11 -2 6 -16 12 -31 12
-15 1 -27 5 -27 8 0 3 -17 13 -38 22 -22 9 -44 28 -50 42 -6 14 -17 25 -24 25
-10 1 -59 65 -76 102 -2 3 27 6 65 6 119 -2 285 20 304 39 15 15 61 10 69 -7z"/>
<path d="M4620 2220 c-103 -19 -187 -64 -261 -142 -143 -151 -158 -382 -31
-506 90 -88 214 -113 380 -78 44 9 141 68 189 115 162 156 178 413 33 535 -80
67 -197 95 -310 76z m87 -291 c38 -73 -16 -189 -87 -189 -51 0 -78 48 -65 117
18 97 116 144 152 72z"/>
<path d="M964 2205 c-1 -5 -8 -44 -15 -85 -6 -41 -13 -82 -14 -90 -7 -37 -16
-98 -19 -125 -3 -16 -7 -43 -9 -60 -3 -16 -9 -50 -12 -75 -4 -25 -9 -54 -11
-65 -2 -10 -6 -37 -9 -60 -3 -22 -8 -51 -11 -65 -2 -14 -6 -40 -8 -57 l-5 -33
160 0 c119 0 161 3 164 13 5 12 7 24 20 130 4 31 11 57 14 57 3 0 29 -44 56
-98 l51 -97 127 -3 c98 -2 127 0 128 10 0 7 2 20 4 28 1 8 6 35 10 60 12 83
17 112 21 133 2 12 6 39 9 62 3 22 10 65 15 95 10 57 13 75 25 150 4 25 9 53
11 64 2 10 6 41 9 70 l6 51 -123 -2 c-68 -1 -137 -2 -155 -2 -34 -1 -38 -7
-47 -76 -20 -144 -26 -158 -47 -118 -44 86 -112 193 -122 194 -107 5 -220 2
-223 -6z"/>
<path d="M1974 2212 c-34 -3 -32 2 -50 -132 -1 -8 -4 -27 -7 -42 -3 -14 -11
-62 -17 -105 -7 -43 -13 -85 -15 -93 -2 -8 -8 -51 -15 -95 -7 -44 -14 -87 -15
-95 -2 -8 -6 -40 -10 -70 -4 -30 -9 -63 -11 -72 -5 -17 13 -18 280 -18 157 0
287 3 289 8 5 8 14 56 23 131 l6 49 -114 0 c-62 0 -119 1 -126 1 -12 1 -13 26
-3 89 1 2 43 3 94 2 50 -1 102 -1 114 -1 23 1 27 12 38 101 3 25 8 53 11 63 5
16 0 18 -48 17 -29 -1 -82 -1 -117 -1 l-63 1 7 38 c4 20 8 39 10 41 2 2 61 3
130 3 69 0 125 3 126 7 0 3 3 17 5 31 13 73 22 135 18 139 -4 4 -496 7 -540 3z"/>
<path d="M2778 2212 c-36 -2 -47 -7 -46 -20 0 -9 -2 -30 -6 -47 -3 -16 -9 -54
-12 -83 -5 -42 -4 -53 7 -52 8 2 38 2 67 1 l54 -1 -7 -42 c-4 -24 -8 -54 -10
-68 -2 -14 -7 -45 -11 -70 -4 -25 -8 -54 -10 -65 -4 -29 -15 -96 -20 -125 -2
-14 -7 -45 -9 -70 -3 -25 -8 -53 -11 -62 -5 -17 7 -18 159 -18 l165 0 8 58 c4
31 8 59 9 62 1 3 5 30 9 60 5 30 10 62 11 70 1 8 6 35 10 60 4 25 9 52 10 60
3 18 19 122 19 132 2 16 20 21 79 19 l64 -1 7 47 c3 27 9 62 12 78 3 17 7 40
9 53 2 12 -1 22 -8 22 -75 3 -513 4 -549 2z"/>
<path d="M3578 2212 c-36 -2 -47 -7 -46 -20 0 -9 -2 -30 -6 -47 -3 -16 -9 -54
-12 -83 -5 -42 -4 -53 7 -52 8 2 38 2 67 1 l53 -1 -5 -37 c-5 -40 -24 -161
-32 -203 -2 -14 -7 -43 -9 -65 -3 -22 -7 -47 -10 -55 -2 -8 -7 -40 -10 -70 -3
-30 -8 -63 -11 -73 -5 -16 5 -17 158 -15 l163 3 12 70 c7 39 15 90 19 115 3
25 8 54 10 65 2 11 7 40 10 65 3 25 7 52 9 60 2 8 7 35 10 60 11 82 9 80 85
80 l68 0 7 48 c3 26 9 63 11 82 3 19 7 43 10 53 6 19 34 17 -301 20 -115 1
-231 1 -257 -1z"/>
</g>
</svg>
